# This file uses centimeters as units for non-parametric coordinates.

mtllib Bear.mtl
g default
v -11.693376 1.264477 0.773079
v -10.805500 1.264477 0.773079
v -14.284702 7.696046 0.773079
v -8.343120 7.696046 0.773079
v -14.284702 7.696046 -1.748580
v -8.343120 7.696046 -1.748580
v -11.693376 1.264477 -1.748580
v -10.805500 1.264477 -1.748580
v -14.293817 4.314813 -1.750701
v -14.299702 4.314813 0.773370
v -8.335215 4.077312 0.773370
v -8.335215 4.077312 -1.750701
v -12.675071 7.297097 0.773077
v -9.808262 7.289246 0.773079
v -9.865448 7.289246 -1.748580
v -12.866953 7.289246 -1.748580
v -11.696103 -0.918220 0.772145
v -14.299702 -0.928046 0.772307
v -14.293817 -0.928046 -1.742966
v -11.696103 -0.918220 -1.741789
v -10.802907 -0.918797 -1.741789
v -8.335215 -0.917453 -1.742966
v -8.335215 -0.917453 0.772307
v -10.802907 -0.918797 0.772145
v -9.950303 4.077312 -1.750701
v -12.772408 4.077312 -1.750701
v -12.725366 4.077312 0.773370
v -9.721042 4.077312 0.773370
v -9.852813 5.338380 -1.750149
v -12.956051 5.338380 -1.750149
v -14.291444 4.930558 -1.750149
v -14.295797 4.930558 0.773294
v -12.712270 5.340424 0.773294
v -9.743752 5.338380 0.773294
v -8.337273 4.930558 0.773294
v -8.337273 4.930558 -1.750149
v -5.369990 4.939817 0.772268
v -5.369990 4.939817 -1.742683
v -5.369039 7.690791 -1.741810
v -5.369039 7.690791 0.772148
v -17.153547 4.939817 -1.742683
v -17.163159 4.939817 0.772268
v -17.138655 7.690791 0.772148
v -17.138655 7.690791 -1.741810
v -11.109990 1.264477 -1.748580
v -11.340161 1.264477 -1.748580
v -11.395709 1.264477 0.773079
v -11.128245 1.264477 0.773079
v -7.725888 11.289013 2.021055
v -7.725888 11.289013 -2.996288
v -7.725888 10.530693 2.021055
v -7.725888 10.530693 -2.996288
v -7.871213 10.151454 2.021055
v -7.871213 10.151454 -2.996288
v -8.538954 10.615809 -2.996829
v -7.871213 7.980987 -2.996288
v -7.871213 9.066221 -2.996288
v -13.200513 12.102533 2.021055
v -13.200513 12.102533 -2.996288
v -13.958838 12.102533 -2.996288
v -13.958838 12.102533 2.021055
v -14.772356 11.289013 2.021055
v -14.772356 11.289013 -2.996288
v -14.772356 10.530693 -2.996288
v -14.772356 10.530693 2.021055
v -14.776896 10.151454 -2.996288
v -14.776896 10.151454 2.021055
v -14.776896 9.066221 -2.996288
v -14.776896 9.066221 2.021055
v -7.871213 9.066221 2.021055
v -8.539404 12.102533 -2.996288
v -8.539404 12.102533 2.021055
v -9.297727 12.102533 -2.996288
v -9.297727 12.102533 2.021055
v -9.284005 11.330337 -2.996288
v -9.676965 11.723300 -2.996288
v -13.330798 11.272482 -2.996002
v -14.000157 10.544416 -2.996288
v -14.776896 7.980987 -2.996288
v -9.640560 7.508179 -2.996288
v -9.658763 9.615739 -2.996288
v -12.821276 11.723300 -2.996288
v -13.129099 7.508179 -2.996288
v -12.975188 9.615739 -2.996288
v -13.972530 10.931089 2.020936
v -13.214243 10.943848 2.021055
v -14.776896 7.980987 2.021055
v -9.255253 10.943804 2.020942
v -8.498085 10.930900 2.021055
v -7.871213 7.980987 2.021055
v -12.821276 11.723300 2.021055
v -12.906082 7.517304 2.021053
v -12.863678 9.620300 2.021054
v -9.676965 11.723300 2.021055
v -9.625529 9.615739 2.021055
v -9.574094 7.508179 2.021055
v -13.060162 9.423819 2.021054
v -14.374713 9.268412 2.020996
v -14.776896 9.608837 2.021055
v -14.776896 9.608837 -2.996288
v -14.388526 9.262701 -2.996288
v -13.229949 9.390330 -2.996145
v -12.898232 10.669520 -2.996288
v -9.667863 10.669520 -2.996288
v -9.462282 9.419258 -2.996288
v -8.205083 9.298399 -2.996559
v -7.871213 9.608837 -2.996288
v -7.871213 9.608837 2.021055
v -8.184649 9.262701 2.021055
v -9.414673 9.417925 2.020999
v -9.651247 10.669520 2.021055
v -12.842477 10.671800 2.021055
v -12.863678 9.620300 3.155685
v -9.625529 9.615739 3.155686
v -12.906082 7.517304 3.155684
v -9.574094 7.508179 3.155686
vt 0.375000 0.000000
vt 0.625000 0.000000
vt 0.375000 0.750000
vt 0.625000 0.750000
vt 0.375000 1.000000
vt 0.625000 1.000000
vt 0.875000 0.000000
vt 0.875000 0.250000
vt 0.125000 0.000000
vt 0.125000 0.250000
vt 0.625000 0.250000
vt 0.375000 0.500000
vt 0.625000 0.500000
vt 0.375000 0.250000
vt 0.625000 0.250000
vt 0.562506 0.500000
vt 0.562506 0.500000
vt 0.437494 0.250000
vt 0.437494 0.250000
vt 0.375000 0.500000
vt 0.625000 0.500000
vt 0.625000 0.500000
vt 0.562506 0.250000
vt 0.562506 0.250000
vt 0.577581 0.500000
vt 0.609925 0.250000
vt 0.437494 0.500000
vt 0.437494 0.500000
vt 0.375000 0.250000
vt 0.375000 0.250000
vt 0.390075 0.500000
vt 0.422419 0.250000
vt 0.625000 0.250000
vt 0.609925 0.500000
vt 0.568251 0.250000
vt 0.577581 0.250000
vt 0.568251 0.500000
vt 0.431749 0.250000
vt 0.431749 0.500000
vt 0.422419 0.500000
vt 0.390075 0.250000
vt 0.375000 0.500000
vt 0.125000 0.126320
vt 0.375000 0.623680
vt 0.375000 0.126320
vt 0.625000 0.126320
vt 0.625000 0.623680
vt 0.875000 0.126320
vt 0.500000 0.250000
vt 0.562500 0.250000
vt 0.500000 0.500000
vt 0.437500 0.500000
vt 0.375000 0.000000
vt 0.375000 0.126320
vt 0.125000 0.126320
vt 0.125000 0.000000
vt 0.875000 0.000000
vt 0.875000 0.126320
vt 0.625000 0.126320
vt 0.625000 0.000000
vt 0.500000 0.623680
vt 0.437500 0.623680
vt 0.500000 0.126320
vt 0.562500 0.126320
vt 0.500000 0.591477
vt 0.437500 0.591477
vt 0.125000 0.158523
vt 0.375000 0.591477
vt 0.375000 0.158523
vt 0.500000 0.158523
vt 0.562500 0.158523
vt 0.625000 0.158523
vt 0.625000 0.591477
vt 0.875000 0.158523
vt 0.625000 0.158523
vt 0.875000 0.158523
vt 0.875000 0.250000
vt 0.625000 0.250000
vt 0.125000 0.158523
vt 0.375000 0.158523
vt 0.375000 0.250000
vt 0.125000 0.250000
vt 0.500000 0.750000
vt 0.437500 0.750000
vt 0.500000 1.000000
vt 0.500000 0.000000
vt 0.562500 1.000000
vt 0.562500 0.000000
vt 0.406247 0.250000
vt 0.421870 0.250000
vt 0.593753 0.250000
vt 0.609377 0.250000
vt 0.593753 0.500000
vt 0.578130 0.500000
vt 0.406247 0.500000
vt 0.390623 0.500000
vt 0.375000 0.250000
vt 0.375000 0.500000
vt 0.625000 0.500000
vt 0.625000 0.250000
vt 0.531253 0.500000
vt 0.437497 0.500000
vt 0.468747 0.250000
vt 0.562503 0.250000
vt 0.625000 0.500000
vt 0.500000 0.500000
vt 0.437500 0.500000
vt 0.375000 0.500000
vt 0.375000 0.250000
vt 0.625000 0.250000
vt 0.500000 0.250000
vt 0.562500 0.250000
vt 0.460935 0.250000
vt 0.460935 0.250000
vt 0.390623 0.250000
vt 0.390623 0.250000
vt 0.375000 0.250000
vt 0.375000 0.500000
vt 0.382812 0.500000
vt 0.382812 0.500000
vt 0.421874 0.500000
vt 0.421874 0.500000
vt 0.437495 0.500000
vt 0.546880 0.500000
vt 0.539065 0.500000
vt 0.539065 0.500000
vt 0.609377 0.500000
vt 0.609377 0.500000
vt 0.625000 0.500000
vt 0.625000 0.250000
vt 0.617188 0.250000
vt 0.578127 0.250000
vt 0.578127 0.250000
vt 0.562505 0.250000
vt 0.453120 0.250000
vt 0.562503 0.250000
vt 0.468747 0.250000
vt 0.500000 0.250000
vt 0.562500 0.250000
vn 0.003778 -0.999993 0.000004
vn 0.003778 -0.999993 0.000004
vn 0.003778 -0.999993 0.000004
vn 0.003778 -0.999993 0.000004
vn 0.000545 -1.000000 0.000000
vn 0.000545 -1.000000 0.000000
vn 0.000545 -1.000000 0.000000
vn 0.000545 -1.000000 0.000000
vn 1.000000 -0.000346 0.000000
vn 1.000000 -0.000346 0.000000
vn 1.000000 -0.000346 0.000000
vn 1.000000 -0.000346 0.000000
vn -0.003232 -0.999995 -0.000009
vn -0.003232 -0.999995 -0.000009
vn -0.003232 -0.999995 -0.000009
vn -0.003232 -0.999995 -0.000009
vn 0.003120 -0.999995 0.000000
vn 0.003120 -0.999995 0.000000
vn 0.003120 -0.999995 0.000000
vn 0.003120 -0.999995 0.000000
vn 1.000000 0.000000 0.000000
vn 1.000000 0.000000 0.000000
vn 1.000000 0.000000 0.000000
vn 1.000000 0.000000 0.000000
vn 0.999997 0.002412 0.000000
vn 0.999997 0.002412 0.000000
vn 0.999997 0.002412 0.000000
vn 0.999997 0.002412 0.000000
vn -0.000070 -0.000269 1.000000
vn -0.000070 -0.000269 1.000000
vn -0.000070 -0.000269 1.000000
vn -0.000070 -0.000269 1.000000
vn -0.000002 0.000086 1.000000
vn -0.000002 0.000086 1.000000
vn -0.000009 -0.000014 1.000000
vn -0.000009 -0.000014 1.000000
vn -0.999997 -0.000001 -0.002336
vn -0.999997 -0.000001 -0.002336
vn -0.999997 -0.000001 -0.002336
vn -0.999997 -0.000001 -0.002336
vn -0.999985 0.005098 -0.002029
vn -0.999985 0.005098 -0.002029
vn -0.999985 0.005098 -0.002029
vn -0.999985 0.005098 -0.002029
vn -0.000509 -0.001956 -0.999998
vn -0.000509 -0.001956 -0.999998
vn -0.000509 -0.001956 -0.999998
vn -0.000509 -0.001956 -0.999998
vn -0.000000 0.000085 1.000000
vn -0.000000 0.000085 1.000000
vn -0.000000 -0.000022 1.000000
vn -0.000000 -0.000022 1.000000
vn 0.000005 0.000082 1.000000
vn 0.000005 0.000082 1.000000
vn 0.000005 -0.000016 1.000000
vn 0.000005 -0.000016 1.000000
vn 0.999999 -0.001249 0.000000
vn 0.999999 -0.001249 0.000000
vn 0.999999 -0.001249 0.000000
vn 0.999999 -0.001249 0.000000
vn 0.000485 -0.002023 -0.999998
vn 0.000485 -0.002023 -0.999998
vn 0.000485 -0.002023 -0.999998
vn 0.000485 -0.002023 -0.999998
vn 0.000034 -0.000117 -1.000000
vn 0.000034 -0.000117 -1.000000
vn 0.000000 -0.000754 -1.000000
vn 0.000000 -0.000754 -1.000000
vn -0.999999 -0.001188 0.000000
vn -0.999999 -0.001188 0.000000
vn -0.999999 -0.001188 0.000000
vn -0.999999 -0.001188 0.000000
vn 0.000067 -0.000278 1.000000
vn 0.000067 -0.000278 1.000000
vn 0.000067 -0.000278 1.000000
vn 0.000067 -0.000278 1.000000
vn -0.000101 -0.000793 -1.000000
vn -0.000068 -0.000104 -1.000000
vn -0.000068 -0.000104 -1.000000
vn -0.000101 -0.000793 -1.000000
vn 0.000000 -0.000158 -1.000000
vn 0.000000 -0.000754 -1.000000
vn 0.000000 -0.000754 -1.000000
vn 0.000000 -0.000158 -1.000000
vn -0.000014 -0.000109 1.000000
vn -0.000014 -0.000109 1.000000
vn 0.000000 -0.000104 1.000000
vn 0.000000 -0.000104 1.000000
vn 0.000000 -0.000104 1.000000
vn 0.000000 -0.000104 1.000000
vn 0.000000 -1.000000 0.000000
vn 0.000000 -1.000000 0.000000
vn 0.000000 -1.000000 0.000000
vn 0.000000 -1.000000 0.000000
vn 0.000000 -1.000000 -0.000000
vn 0.000000 -1.000000 -0.000000
vn 0.000000 -1.000000 -0.000000
vn 0.000000 -1.000000 -0.000000
vn 0.000000 -1.000000 -0.000000
vn 0.000000 -1.000000 -0.000000
vn 0.000000 -1.000000 -0.000000
vn 0.000000 -1.000000 -0.000000
vn -0.999973 0.007161 -0.001911
vn -0.999973 0.007161 -0.001911
vn -0.999973 0.007161 -0.001911
vn -0.999973 0.007161 -0.001911
vn 1.000000 0.000000 0.000000
vn 1.000000 0.000000 0.000000
vn 1.000000 0.000000 0.000000
vn 1.000000 0.000000 0.000000
vn 0.002396 0.000445 -0.999997
vn 0.002396 0.000445 -0.999997
vn 0.002396 0.000445 -0.999997
vn 0.002396 0.000445 -0.999997
vn 0.933787 -0.357830 0.000000
vn 0.933787 -0.357830 0.000000
vn 0.933787 -0.357830 0.000000
vn 0.933787 -0.357830 0.000000
vn 0.000732 -0.000042 -1.000000
vn 0.000656 -0.000084 -1.000000
vn 0.000656 -0.000084 -1.000000
vn 0.000732 -0.000042 -1.000000
vn 0.000809 0.000000 -1.000000
vn 0.000809 0.000000 -1.000000
vn 0.000809 0.000000 -1.000000
vn 0.000809 0.000000 -1.000000
vn 0.000000 1.000000 0.000000
vn 0.000000 1.000000 0.000000
vn 0.000000 1.000000 0.000000
vn 0.000000 1.000000 0.000000
vn -0.707108 0.707106 0.000000
vn -0.707108 0.707106 0.000000
vn -0.707108 0.707106 0.000000
vn -0.707108 0.707106 0.000000
vn -1.000000 0.000000 0.000000
vn -1.000000 0.000000 0.000000
vn -1.000000 0.000000 0.000000
vn -1.000000 0.000000 0.000000
vn -0.999928 0.011972 0.000000
vn -0.999928 0.011972 0.000000
vn -0.999928 0.011972 0.000000
vn -0.999928 0.011972 0.000000
vn -1.000000 0.000000 0.000000
vn -1.000000 0.000000 0.000000
vn -1.000000 0.000000 0.000000
vn -1.000000 0.000000 0.000000
vn 1.000000 0.000000 0.000000
vn 1.000000 0.000000 0.000000
vn 1.000000 0.000000 0.000000
vn 1.000000 0.000000 0.000000
vn 0.707108 0.707106 0.000000
vn 0.707108 0.707106 0.000000
vn 0.707108 0.707106 0.000000
vn 0.707108 0.707106 0.000000
vn 0.000000 1.000000 0.000000
vn 0.000000 1.000000 0.000000
vn 0.000000 1.000000 0.000000
vn 0.000000 1.000000 0.000000
vn -0.000220 0.000129 -1.000000
vn 0.000010 0.000363 -1.000000
vn 0.000010 0.000363 -1.000000
vn -0.000220 0.000129 -1.000000
vn -0.000000 0.000000 -1.000000
vn -0.000000 0.000000 -1.000000
vn -0.000000 0.000000 -1.000000
vn -0.000000 0.000000 -1.000000
vn 0.000034 0.000592 -1.000000
vn 0.000034 0.000592 -1.000000
vn -0.000018 0.000625 -1.000000
vn -0.000018 0.000625 -1.000000
vn 0.000000 0.000621 -1.000000
vn 0.000000 0.000621 -1.000000
vn 0.000199 -0.000006 -1.000000
vn 0.000199 -0.000006 -1.000000
vn 0.000211 0.000010 -1.000000
vn 0.000211 0.000010 -1.000000
vn 0.000001 -0.000001 -1.000000
vn 0.000001 -0.000001 -1.000000
vn 0.000000 -0.000000 -1.000000
vn 0.000000 -0.000000 -1.000000
vn -0.002490 0.000452 -0.999997
vn -0.002490 0.000452 -0.999997
vn -0.002490 0.000452 -0.999997
vn -0.002490 0.000452 -0.999997
vn -0.000000 0.000000 -1.000000
vn -0.000000 0.000000 -1.000000
vn -0.000000 0.000000 -1.000000
vn -0.000000 0.000000 -1.000000
vn 0.000000 0.000000 -1.000000
vn 0.000000 0.000000 -1.000000
vn 0.000000 0.000000 -1.000000
vn 0.000000 0.000000 -1.000000
vn 0.000000 0.000665 -1.000000
vn 0.000000 0.000665 -1.000000
vn -0.000109 -0.000328 -1.000000
vn -0.000354 -0.000142 -1.000000
vn -0.000354 -0.000142 -1.000000
vn -0.000109 -0.000328 -1.000000
vn -0.000000 0.000665 -1.000000
vn -0.000000 0.000665 -1.000000
vn -0.000598 0.000044 -1.000000
vn -0.000599 0.000044 -1.000000
vn -0.000599 0.000044 -1.000000
vn -0.000598 0.000044 -1.000000
vn 0.000000 0.000804 -1.000000
vn 0.000000 0.000804 -1.000000
vn -0.000000 0.000000 -1.000000
vn -0.000000 0.000000 -1.000000
vn -0.000000 0.000000 -1.000000
vn -0.000000 0.000000 -1.000000
vn -0.000079 -0.000087 -1.000000
vn -0.000264 -0.000096 -1.000000
vn -0.000264 -0.000096 -1.000000
vn -0.000079 -0.000087 -1.000000
vn 0.000139 0.000033 -1.000000
vn 0.000139 0.000033 -1.000000
vn 0.000056 0.000040 -1.000000
vn 0.000056 0.000040 -1.000000
vn -0.000000 0.000000 -1.000000
vn -0.000000 0.000000 -1.000000
vn -0.000342 0.000063 1.000000
vn -0.000342 0.000063 1.000000
vn -0.000342 0.000063 1.000000
vn -0.000342 0.000063 1.000000
vn 0.000149 -0.000000 1.000000
vn 0.000149 -0.000001 1.000000
vn 0.000149 -0.000001 1.000000
vn 0.000149 -0.000000 1.000000
vn -0.000055 -0.000038 1.000000
vn -0.000022 -0.000101 1.000000
vn -0.000022 -0.000101 1.000000
vn -0.000055 -0.000038 1.000000
vn 0.000148 0.000000 1.000000
vn 0.000148 0.000000 1.000000
vn 0.000148 -0.000000 1.000000
vn 0.000148 -0.000000 1.000000
vn -0.001841 0.999998 0.000000
vn -0.001841 0.999998 0.000000
vn -0.001841 0.999998 0.000000
vn -0.001841 0.999998 0.000000
vn -1.000000 0.000000 0.000000
vn -1.000000 0.000000 0.000000
vn -0.000074 -0.000003 1.000000
vn -0.000074 -0.000003 1.000000
vn -0.000079 0.000006 1.000000
vn -0.000079 0.000006 1.000000
vn 0.000329 0.000061 1.000000
vn 0.000329 0.000061 1.000000
vn 0.000329 0.000061 1.000000
vn 0.000329 0.000061 1.000000
vn 0.000000 0.000000 1.000000
vn 0.000000 0.000000 1.000000
vn 0.000000 0.000000 1.000000
vn 0.000000 0.000000 1.000000
vn 0.001767 0.999998 0.000000
vn 0.001767 0.999998 0.000000
vn 0.001767 0.999998 0.000000
vn 0.001767 0.999998 0.000000
vn 1.000000 0.000000 0.000000
vn 1.000000 0.000000 0.000000
vn 0.000000 0.000000 1.000000
vn 0.000001 0.000000 1.000000
vn 0.000001 0.000000 1.000000
vn 0.000000 0.000000 1.000000
vn -0.000000 0.000000 1.000000
vn -0.000000 0.000000 1.000000
vn 0.000000 -0.000000 1.000000
vn 0.000000 -0.000000 1.000000
vn 0.000000 0.000092 1.000000
vn 0.000000 0.000092 1.000000
vn -0.000001 -0.000001 1.000000
vn -0.000001 -0.000001 1.000000
vn -0.000003 -0.000001 1.000000
vn -0.000003 -0.000001 1.000000
vn -0.000000 0.000111 1.000000
vn -0.000000 0.000111 1.000000
vn -0.000000 -0.000000 1.000000
vn -0.000000 -0.000000 1.000000
vn -0.000000 -0.000000 1.000000
vn -0.000000 -0.000000 1.000000
vn 0.000032 -0.000097 1.000000
vn 0.000157 -0.000045 1.000000
vn 0.000157 -0.000045 1.000000
vn 0.000032 -0.000097 1.000000
vn 0.000000 0.000091 1.000000
vn 0.000000 0.000091 1.000000
vn 0.000274 0.000007 1.000000
vn 0.000278 0.000007 1.000000
vn 0.000278 0.000007 1.000000
vn 0.000274 0.000007 1.000000
vn -0.707102 0.707111 0.000000
vn -0.707102 0.707111 0.000000
vn -0.707102 0.707111 0.000000
vn -0.707102 0.707111 0.000000
vn 0.707103 0.707111 0.000000
vn 0.707103 0.707111 0.000000
vn 0.707103 0.707111 0.000000
vn 0.707103 0.707111 0.000000
vn 0.000000 1.000000 0.000000
vn 0.000000 1.000000 0.000000
vn 0.000000 1.000000 0.000000
vn 0.000000 1.000000 0.000000
vn -0.000015 0.000019 1.000000
vn -0.000051 0.000022 1.000000
vn -0.000051 0.000022 1.000000
vn -0.000015 0.000019 1.000000
vn -0.000053 0.000015 1.000000
vn -0.000053 0.000015 1.000000
vn -0.000021 0.000017 1.000000
vn -0.000021 0.000017 1.000000
vn -0.000001 -0.000000 1.000000
vn -0.000001 -0.000000 1.000000
vn -0.000001 -0.000000 1.000000
vn -0.000001 -0.000000 1.000000
vn 0.256233 -0.958876 -0.122068
vn 0.256233 -0.958876 -0.122068
vn 0.256233 -0.958876 -0.122068
vn 0.256233 -0.958876 -0.122068
vn -0.274129 -0.955376 -0.110043
vn -0.274129 -0.955376 -0.110043
vn -0.274129 -0.955376 -0.110043
vn -0.274129 -0.955376 -0.110043
vn -0.000000 -0.984952 -0.172828
vn -0.000000 -0.984952 -0.172828
vn -0.000000 -0.984952 -0.172828
vn -0.000000 -0.984952 -0.172828
vn -0.501019 -0.865436 0.000000
vn -0.501019 -0.865436 0.000000
vn -0.501019 -0.865436 0.000000
vn -0.501019 -0.865436 0.000000
vn 0.516891 -0.856051 0.000000
vn 0.516891 -0.856051 0.000000
vn 0.516891 -0.856051 0.000000
vn 0.516891 -0.856051 0.000000
vn -0.238662 -0.962929 0.125732
vn -0.238662 -0.962929 0.125732
vn -0.238662 -0.962929 0.125732
vn -0.238662 -0.962929 0.125732
vn 0.265662 -0.956817 0.118006
vn 0.265662 -0.956817 0.118006
vn 0.265662 -0.956817 0.118006
vn 0.265662 -0.956817 0.118006
vn -0.002697 -0.984869 0.173282
vn -0.002697 -0.984869 0.173282
vn -0.002728 -0.996172 0.087369
vn -0.002728 -0.996172 0.087369
vn -1.000000 0.000000 0.000000
vn -1.000000 0.000000 0.000000
vn -0.000000 0.000000 -1.000000
vn -0.000000 0.000000 -1.000000
vn 1.000000 0.000000 0.000000
vn 1.000000 0.000000 0.000000
vn -0.000000 -0.000000 1.000000
vn -0.000000 -0.000000 1.000000
vn 0.001408 0.999999 0.000000
vn 0.001408 0.999999 0.000000
vn 0.001408 0.999999 0.000000
vn 0.001408 0.999999 0.000000
vn -0.999797 0.020159 0.000000
vn -0.999797 0.020159 0.000000
vn -0.999797 0.020159 0.000000
vn -0.999797 0.020159 0.000000
vn -0.002739 -0.999996 0.000000
vn -0.002739 -0.999996 0.000000
vn 0.999702 0.024398 0.000000
vn 0.999702 0.024398 0.000000
vn 0.999702 0.024398 0.000000
vn 0.999702 0.024398 0.000000
s off
g bear_model_pCube1
usemtl lambert3SG
f 17/53/1 18/54/2 19/55/3 20/56/4
f 21/57/5 22/58/6 23/59/7 24/60/8
f 37/75/9 38/76/10 39/77/11 40/78/12
f 41/79/13 31/67/14 32/69/15 42/80/16
f 38/76/17 37/75/18 35/72/19 36/74/20
f 11/46/21 23/59/22 22/58/23 12/48/24
f 12/48/25 36/74/26 35/72/27 11/46/28
f 1/1/29 10/45/30 18/54/31 17/53/32
s 1
f 33/70/33 32/69/34 10/45/35 27/63/36
s off
f 9/43/37 19/55/38 18/54/39 10/45/40
f 31/67/41 9/43/42 10/45/43 32/69/44
f 19/55/45 9/43/46 7/9/47 20/56/48
s 2
f 34/71/49 33/70/50 27/63/51 28/64/52
s 3
f 35/72/53 34/71/54 28/64/55 11/46/56
s off
f 7/9/57 1/1/58 17/53/59 20/56/60
f 8/7/61 12/48/62 22/58/63 21/57/64
s 4
f 25/61/65 12/47/66 8/4/67 45/83/68
s off
f 2/2/69 8/7/70 21/57/71 24/60/72
f 23/59/73 11/46/74 2/2/75 24/60/76
s 5
f 7/3/77 9/44/78 26/62/79 46/84/80
s 6
f 25/61/81 45/83/82 46/84/83 26/62/84
s 1
f 27/63/36 10/45/35 1/1/85 47/86/86
s 3
f 2/2/87 11/46/56 28/64/55 48/88/88
s 2
f 48/88/89 28/64/52 27/63/51 47/86/90
s off
f 47/85/91 1/5/92 7/3/93 46/84/94
f 48/87/95 47/85/96 46/84/97 45/83/98
f 2/6/99 48/87/100 45/83/101 8/4/102
f 44/82/103 41/79/104 42/80/105 43/81/106
f 50/34/107 49/26/108 51/33/109 52/22/110
f 6/8/111 39/77/112 38/76/113 36/74/114
f 51/33/115 53/15/116 54/21/117 52/22/118
s 7
f 55/93/119 50/34/120 52/22/121 54/21/122
f 56/13/123 106/127/124 107/129/125 57/99/126
s off
f 58/38/127 59/39/128 60/40/129 61/32/130
f 62/41/131 61/32/132 60/40/133 63/31/134
f 62/41/135 63/31/136 64/42/137 65/30/138
f 65/30/139 64/42/140 66/20/141 67/29/142
s 8
f 99/117/143 100/118/144 68/98/145 69/97/146
s 9
f 107/129/147 108/130/148 70/100/149 57/99/150
s off
f 49/26/151 50/34/152 71/25/153 72/36/154
f 72/36/155 71/25/156 73/37/157 74/35/158
s 10
f 75/94/159 71/25/160 50/34/161 55/93/162
s 11
f 73/17/163 71/25/164 75/94/165 76/16/166
s 4
f 25/61/65 29/65/167 36/73/168 12/47/66
s 5
f 26/62/79 9/44/78 31/68/169 30/66/170
s 6
f 26/62/84 30/66/171 29/65/172 25/61/81
s 12
f 63/31/173 60/40/174 77/95/175 78/96/176
s 13
f 64/42/177 63/31/178 78/96/179 66/20/180
s off
f 44/82/181 5/10/182 31/67/183 41/79/184
s 13
f 101/120/185 79/12/186 68/98/187 100/118/188
s 11
f 105/126/189 80/51/190 81/101/191 104/124/192
s 4
f 6/13/193 36/73/168 29/65/167 15/51/194
s 14
f 59/28/195 82/27/196 77/95/197 60/40/198
s 5
f 5/12/199 16/52/200 30/66/170 31/68/169
s 14
f 83/52/201 102/121/202 103/123/203 84/102/204
s 6
f 16/52/205 15/51/206 29/65/172 30/66/171
s 15
f 81/101/207 84/102/208 103/123/209 104/124/210
s 10
f 80/106/211 105/125/212 106/128/213 56/105/214
s 12
f 101/119/215 102/122/216 83/107/217 79/108/218
s 15
f 80/106/219 83/107/220 84/102/208 81/101/207
s off
f 32/69/221 3/14/222 43/81/223 42/80/224
s 16
f 85/89/225 62/41/226 65/30/227 67/29/228
s 17
f 86/90/229 61/32/230 62/41/231 85/89/232
s 16
f 69/97/233 87/14/234 98/115/235 99/117/236
s off
f 44/82/237 43/81/238 3/14/239 5/10/240
s 8
f 79/108/241 87/109/242 69/97/146 68/98/145
s 18
f 49/26/243 72/36/244 88/91/245 89/92/246
s off
f 35/72/247 37/75/248 40/78/249 4/11/250
s 19
f 51/33/251 49/26/252 89/92/253 53/15/254
s off
f 4/11/255 40/78/256 39/77/257 6/8/258
s 9
f 56/105/259 57/99/150 70/100/149 90/110/260
s 19
f 109/131/261 90/110/262 70/100/263 108/130/264
s 20
f 58/19/265 61/32/266 86/90/267 91/18/268
s 1
f 3/14/269 32/69/34 33/70/33 13/49/270
s 20
f 112/135/271 97/114/272 92/49/273 93/103/274
s 2
f 14/50/275 13/49/276 33/70/50 34/71/49
s 21
f 111/134/277 112/135/278 93/103/279 95/104/280
s 22
f 74/24/281 94/23/282 88/91/283 72/36/284
s 3
f 4/11/285 14/50/286 34/71/54 35/72/53
s 22
f 96/50/287 110/132/288 111/134/289 95/104/290
s off
f 73/17/291 76/16/292 94/23/293 74/24/294
f 59/28/295 58/19/296 91/18/297 82/27/298
f 82/27/299 91/18/300 94/23/301 76/16/302
s 17
f 92/111/303 97/113/304 98/116/305 87/109/306
s 18
f 109/131/307 110/133/308 96/112/309 90/110/310
s off
f 114/136/311 113/137/312 115/138/313 116/139/314
f 6/13/315 15/51/316 80/106/317 56/105/318
f 16/52/319 5/12/320 79/108/321 83/107/322
f 15/51/323 16/52/324 83/107/325 80/106/326
f 5/12/327 3/14/328 87/109/329 79/108/330
f 4/11/331 6/13/332 56/105/333 90/110/334
f 3/14/335 13/49/336 92/111/337 87/109/338
f 14/50/339 4/11/340 90/110/341 96/112/342
s 23
f 13/49/343 14/50/344 96/112/345 92/111/346
s 17
usemtl lambert7SG
f 97/113/304 86/90/229 85/89/232 98/116/305
s 16
usemtl lambert3SG
f 99/117/236 98/115/235 85/89/225 67/29/228
s 8
f 67/29/347 66/20/348 100/118/144 99/117/143
s 13
f 78/96/179 101/120/185 100/118/188 66/20/180
s 12
f 78/96/176 77/95/175 102/122/216 101/119/215
s 14
f 103/123/203 102/121/202 77/95/197 82/27/196
s 15
f 104/124/210 103/123/209 82/27/349 76/16/350
s 11
f 75/94/165 105/126/189 104/124/192 76/16/166
s 10
f 106/128/213 105/125/212 75/94/159 55/93/162
s 7
f 107/129/125 106/127/124 55/93/119 54/21/122
s 9
f 54/21/351 53/15/352 108/130/148 107/129/147
s 19
f 89/92/253 109/131/261 108/130/264 53/15/254
s 18
usemtl lambert7SG
f 89/92/246 88/91/245 110/133/308 109/131/307
s 22
usemtl lambert3SG
f 111/134/289 110/132/288 88/91/283 94/23/282
s 21
f 94/23/353 91/18/354 112/135/278 111/134/277
s 20
f 86/90/267 97/114/272 112/135/271 91/18/268
s off
f 95/104/355 93/103/356 113/137/357 114/136/358
f 93/103/359 92/111/360 115/138/361 113/137/362
s 23
f 92/111/346 96/112/345 116/139/363 115/138/364
s off
f 96/112/365 95/104/366 114/136/367 116/139/368
