# This file uses centimeters as units for non-parametric coordinates.

mtllib Hut.mtl
g default
v 9.422255 0.101607 3.046825
v 17.449401 0.101607 3.046825
v 9.075592 5.708042 4.169380
v 17.796074 5.708042 4.169380
v 9.075592 5.694352 -4.187100
v 17.796074 5.694352 -4.187100
v 9.422255 0.101607 -3.064545
v 17.449401 0.101607 -3.064545
v 8.994272 5.853405 4.432695
v 17.877384 5.853405 4.432695
v 17.877384 5.836505 -4.450415
v 8.994272 5.836505 -4.450415
v 17.449401 5.088331 3.046825
v 9.422255 5.088331 3.046825
v 9.422255 5.088331 -3.064545
v 17.449401 5.088331 -3.064545
v 11.512198 13.860420 1.479790
v 15.359458 13.860420 1.479790
v 15.359458 13.860420 -1.497510
v 11.512198 13.860420 -1.497510
v 9.075592 5.701137 -0.044483
v 9.422255 5.088331 -0.034912
v 9.422255 0.101607 -0.034912
v 17.449401 0.101607 -0.034912
v 17.449401 5.088331 -0.034912
v 17.796074 5.701137 -0.044483
v 19.134903 5.844883 -0.056003
v 15.904088 13.860420 -0.024661
v 10.967567 13.860420 -0.024661
v 7.736752 5.844883 -0.056003
v 13.393343 5.694352 -4.187100
v 13.396717 5.088331 -3.064545
v 13.396717 0.101607 -3.064545
v 13.396717 0.101607 -0.034912
v 13.396717 0.101607 3.046825
v 13.396717 5.088331 3.046825
v 13.393343 5.708042 4.169380
v 13.380292 5.853405 5.520574
v 13.411776 13.860420 1.844408
v 13.417083 13.860420 -0.021552
v 13.411776 13.860420 -1.862128
v 13.380292 5.836505 -5.538293
v 17.428832 10.628754 3.370188
v 13.385901 10.628754 4.197823
v 9.442823 10.628754 3.370188
v 8.312299 10.626305 -0.044725
v 9.442823 10.623894 -3.387908
v 13.385901 10.623894 -4.215544
v 17.428832 10.623894 -3.387908
v 18.559356 10.626305 -0.044725
v 11.479561 0.166644 3.046825
v 13.414880 0.166644 3.046825
v 13.414880 4.072910 3.046825
v 11.479561 4.072910 3.046825
v 15.383620 0.166644 3.046825
v 15.383620 4.072910 3.046825
vt 0.375000 0.000000
vt 0.625000 0.000000
vt 0.375000 0.250000
vt 0.625000 0.250000
vt 0.375000 0.500000
vt 0.625000 0.500000
vt 0.375000 0.750000
vt 0.625000 0.750000
vt 0.375000 1.000000
vt 0.625000 1.000000
vt 0.875000 0.000000
vt 0.875000 0.250000
vt 0.125000 0.000000
vt 0.125000 0.250000
vt 0.375000 0.250000
vt 0.625000 0.250000
vt 0.625000 0.500000
vt 0.375000 0.500000
vt 0.625000 0.240033
vt 0.375000 0.240033
vt 0.125000 0.240033
vt 0.375000 0.509967
vt 0.625000 0.509967
vt 0.875000 0.240033
vt 0.375000 0.250000
vt 0.625000 0.250000
vt 0.625000 0.500000
vt 0.375000 0.500000
vt 0.248934 0.250000
vt 0.375000 0.376066
vt 0.248934 0.240033
vt 0.248934 0.000000
vt 0.375000 0.873934
vt 0.625000 0.873934
vt 0.751066 0.000000
vt 0.751066 0.240033
vt 0.625000 0.376066
vt 0.751066 0.250000
vt 0.625000 0.376066
vt 0.625000 0.376066
vt 0.375000 0.376066
vt 0.375000 0.376066
vt 0.498782 0.500000
vt 0.498782 0.509967
vt 0.498782 0.750000
vt 0.498782 0.873934
vt 0.498782 0.000000
vt 0.498782 1.000000
vt 0.498782 0.240033
vt 0.498782 0.250000
vt 0.498782 0.250000
vt 0.498782 0.250000
vt 0.498782 0.376066
vt 0.498782 0.500000
vt 0.498782 0.500000
vt 0.625000 0.250000
vt 0.498782 0.250000
vt 0.375000 0.250000
vt 0.375000 0.376066
vt 0.375000 0.500000
vt 0.498782 0.500000
vt 0.625000 0.500000
vt 0.625000 0.376066
vt 0.375000 0.000000
vt 0.498782 0.000000
vt 0.498782 0.240033
vt 0.375000 0.240033
vt 0.625000 0.000000
vt 0.625000 0.240033
vn 0.000000 -0.000000 1.000000
vn 0.000000 -0.000001 1.000000
vn 0.000000 -0.000000 1.000000
vn 0.000000 -0.000000 1.000000
vn 0.000000 1.000000 -0.000000
vn 0.000000 1.000000 -0.000000
vn 0.000000 1.000000 0.000000
vn 0.000000 1.000000 0.000000
vn 0.000000 -0.512322 -0.858793
vn 0.000000 -0.512322 -0.858793
vn 0.000000 0.000000 -1.000000
vn 0.000000 0.000000 -1.000000
vn 0.000000 -1.000000 0.000000
vn 0.000000 -1.000000 0.000000
vn 0.000000 -1.000000 0.000000
vn 0.000000 -1.000000 0.000000
vn 1.000000 0.000000 0.000000
vn 1.000000 0.000000 0.000000
vn 0.967054 -0.254572 0.000241
vn 0.967311 -0.253594 0.000240
vn -1.000000 0.000000 0.000000
vn -1.000000 0.000000 0.000000
vn -0.967312 -0.253589 0.000240
vn -0.967055 -0.254566 0.000241
vn -0.021990 -0.984156 0.175933
vn -0.021990 -0.984156 0.175933
vn -0.021990 -0.984156 0.175933
vn -0.021990 -0.984156 0.175933
vn 0.194319 -0.980485 0.029817
vn 0.194319 -0.980485 0.029817
vn 0.194319 -0.980485 0.029817
vn 0.194319 -0.980485 0.029817
vn -0.021519 -0.984833 -0.172166
vn -0.021519 -0.984833 -0.172166
vn -0.021519 -0.984833 -0.172166
vn -0.021519 -0.984833 -0.172166
vn -0.194316 -0.980486 0.029817
vn -0.194316 -0.980486 0.029817
vn -0.194316 -0.980486 0.029817
vn -0.194316 -0.980486 0.029817
vn 0.000000 -0.875456 0.483298
vn 0.000000 -0.875456 0.483298
vn 0.000000 -0.875456 0.483298
vn 0.000000 -0.875456 0.483298
vn -0.871385 -0.490599 0.000464
vn -0.870392 -0.492360 0.000466
vn 0.000000 -0.879958 -0.475052
vn 0.000000 -0.879958 -0.475052
vn 0.870386 -0.492370 0.000466
vn 0.871380 -0.490609 0.000464
vn -0.217227 0.246229 0.944555
vn -0.002608 0.252010 0.967721
vn -0.002275 0.426605 0.904435
vn -0.193465 0.419153 0.887064
vn 0.948782 0.133184 0.286486
vn 0.990197 0.139644 -0.003094
vn 0.913839 0.406065 -0.003004
vn 0.877716 0.389040 0.279755
vn -0.002608 0.251416 -0.967875
vn -0.217260 0.245647 -0.944698
vn -0.193522 0.418559 -0.887332
vn -0.002276 0.426005 -0.904718
vn -0.990197 0.139644 -0.003094
vn -0.948782 0.133184 0.286486
vn -0.877716 0.389039 0.279756
vn -0.913839 0.406065 -0.003004
vn -0.966797 -0.255544 0.000242
vn -0.869394 -0.494118 0.000468
vn -1.000000 0.000000 0.000000
vn 0.000000 -1.000000 0.000000
vn 0.000000 -1.000000 0.000000
vn 1.000000 0.000000 0.000000
vn 0.966796 -0.255550 0.000242
vn 0.869389 -0.494129 0.000468
vn 0.192341 -0.980968 -0.026590
vn 0.192341 -0.980968 -0.026590
vn 0.192341 -0.980968 -0.026590
vn 0.192341 -0.980968 -0.026590
vn 0.946838 0.134148 -0.292408
vn 0.875439 0.389977 -0.285523
vn 0.000000 1.000000 0.000000
vn 0.000000 1.000000 0.000000
vn -0.946838 0.134148 -0.292408
vn -0.875439 0.389977 -0.285523
vn -0.192338 -0.980968 -0.026589
vn -0.192338 -0.980968 -0.026589
vn -0.192338 -0.980968 -0.026589
vn -0.192338 -0.980968 -0.026589
vn -0.000000 -0.879958 -0.475052
vn -0.000000 -0.512322 -0.858793
vn -0.000000 0.000000 -1.000000
vn 0.000000 -1.000000 0.000000
vn 0.000000 -1.000000 0.000000
vn 0.000000 -1.000000 0.000000
vn -0.000000 -0.000000 1.000000
vn -0.000000 -0.000000 1.000000
vn 0.000000 -0.875456 0.483298
vn 0.000000 -0.875456 0.483298
vn 0.021550 -0.984101 0.176298
vn 0.021550 -0.984101 0.176298
vn 0.021550 -0.984101 0.176298
vn 0.021550 -0.984101 0.176298
vn 0.212133 0.246039 0.945761
vn 0.188972 0.418314 0.888427
vn 0.000000 1.000000 0.000000
vn 0.000000 1.000000 0.000000
vn 0.000000 1.000000 0.000000
vn 0.212165 0.245458 -0.945905
vn 0.189027 0.417720 -0.888695
vn 0.021089 -0.984779 -0.172524
vn 0.021089 -0.984779 -0.172524
vn 0.021089 -0.984779 -0.172524
vn 0.021089 -0.984779 -0.172524
vn -0.001869 0.584909 0.811096
vn 0.159481 0.576574 0.801329
vn -0.163169 0.577921 0.799614
vn -0.744720 0.617445 0.253286
vn -0.769086 0.639140 -0.002687
vn -0.742241 0.618276 -0.258482
vn -0.163251 0.577343 -0.800015
vn -0.001870 0.584331 -0.811513
vn 0.159560 0.575996 -0.801729
vn 0.769086 0.639140 -0.002688
vn 0.742241 0.618276 -0.258482
vn 0.744720 0.617445 0.253286
vn 0.000000 -0.000001 1.000000
vn 0.000000 -0.000001 1.000000
vn 0.000000 0.000000 1.000000
vn 0.000000 0.000000 1.000000
vn 0.000000 -0.000001 1.000000
vn 0.000000 0.000000 1.000000
s 1
g hut_model_pCube1
usemtl lambert7SG
f 51/64/1 52/65/2 53/66/3 54/67/4
s 2
usemtl lambert3SG
f 17/25/5 39/52/6 40/53/7 29/41/8
s 3
f 15/22/9 32/44/10 33/45/11 7/7/12
s 4
f 23/33/13 34/46/14 35/48/15 1/9/16
s 5
f 2/2/17 24/35/18 25/36/19 13/19/20
s 6
f 23/32/21 1/1/22 14/20/23 22/31/24
s off
f 3/3/25 37/50/26 38/51/27 9/15/28
f 4/4/29 26/37/30 27/39/31 10/16/32
f 42/55/33 31/43/34 5/5/35 12/18/36
f 30/42/37 21/30/38 3/3/39 9/15/40
s 7
f 14/20/41 36/49/42 37/50/43 3/3/44
s 6
f 22/31/24 14/20/23 3/3/45 21/29/46
s 3
f 5/5/47 31/43/48 32/44/10 15/22/9
s 5
f 13/19/20 25/36/19 26/38/49 4/4/50
s 8
f 9/15/51 38/51/52 44/57/53 45/58/54
s 9
f 10/16/55 27/39/56 50/63/57 43/56/58
s 10
f 42/55/59 12/18/60 47/60/61 48/61/62
s 11
f 30/42/63 9/15/64 45/58/65 46/59/66
s 6
f 15/21/67 22/31/24 21/29/46 5/14/68
f 7/13/69 23/32/21 22/31/24 15/21/67
s 4
f 7/7/70 33/45/71 34/46/14 23/33/13
s 5
f 25/36/19 24/35/18 8/11/72 16/24/73
f 26/38/49 25/36/19 16/24/73 6/12/74
s off
f 27/39/75 26/37/76 6/6/77 11/17/78
s 9
f 50/63/57 27/39/56 11/17/79 49/62/80
s 2
f 29/41/8 40/53/7 41/54/81 20/28/82
s 11
f 12/18/83 30/42/63 46/59/66 47/60/84
s off
f 5/5/85 21/30/86 30/42/87 12/18/88
s 3
f 31/43/48 6/6/89 16/23/90 32/44/10
f 33/45/11 32/44/10 16/23/90 8/8/91
s 4
f 34/46/14 33/45/71 8/8/92 24/34/93
f 35/48/15 34/46/14 24/34/93 2/10/94
s 1
usemtl lambert7SG
f 53/66/3 52/65/2 55/68/95 56/69/96
s 7
usemtl lambert3SG
f 37/50/43 36/49/42 13/19/97 4/4/98
s off
f 38/51/99 37/50/100 4/4/101 10/16/102
s 8
f 44/57/53 38/51/52 10/16/103 43/56/104
s 2
f 40/53/7 39/52/6 18/26/105 28/40/106
f 41/54/81 40/53/7 28/40/106 19/27/107
s 10
f 11/17/108 42/55/59 48/61/62 49/62/109
s off
f 6/6/110 31/43/111 42/55/112 11/17/113
s 8
f 39/52/114 44/57/53 43/56/104 18/26/115
f 45/58/54 44/57/53 39/52/114 17/25/116
s 11
f 46/59/66 45/58/65 17/25/117 29/41/118
f 47/60/84 46/59/66 29/41/118 20/28/119
s 10
f 48/61/62 47/60/61 20/28/120 41/54/121
f 49/62/109 48/61/62 41/54/121 19/27/122
s 9
f 28/40/123 50/63/57 49/62/80 19/27/124
f 43/56/58 50/63/57 28/40/123 18/26/125
s 1
f 1/1/126 35/47/127 52/65/2 51/64/1
f 36/49/128 14/20/129 54/67/4 53/66/3
f 14/20/129 1/1/126 51/64/1 54/67/4
f 35/47/127 2/2/130 55/68/95 52/65/2
f 2/2/130 13/19/131 56/69/96 55/68/95
f 13/19/131 36/49/128 53/66/3 56/69/96
