# This file uses centimeters as units for non-parametric coordinates.

mtllib Kris_Human.mtl
g default
v -0.666360 2.099008 0.676685
v 0.687010 2.099008 0.676685
v -0.666360 3.606628 0.676685
v 0.687010 3.606628 0.676685
v -0.666360 3.606628 -0.676685
v 0.687010 3.606628 -0.676685
v -0.666360 2.099008 -0.676685
v 0.687010 2.099008 -0.676685
v 0.010325 3.606628 -0.676685
v 0.010325 3.606628 0.676685
v -0.666360 3.606628 0.000000
v -0.666360 2.099008 0.000000
v 0.687010 2.099008 0.000000
v 0.687010 3.606628 0.000000
v -0.327984 2.099008 -0.676685
v 0.010325 2.606147 -0.676685
v 0.348633 2.099008 -0.676685
v 0.348633 2.099008 0.676685
v 0.010325 2.606147 0.676685
v -0.327984 2.099008 0.676685
v 0.010325 2.099008 0.676685
v 0.010325 2.099008 0.000000
v 0.010325 2.099008 -0.676685
v 0.348633 0.749824 0.676685
v 0.348633 0.749824 0.000000
v 0.687010 0.749824 0.000000
v 0.687010 0.749824 0.676685
v 0.348633 0.749824 -0.676685
v 0.687010 0.749824 -0.676685
v 0.010325 0.749824 -0.676685
v 0.010325 0.749824 0.000000
v 0.010325 0.749824 0.676685
v -0.666360 0.750078 0.000000
v -0.327984 0.750078 0.000000
v -0.327984 0.750078 0.676685
v -0.666360 0.750078 0.676685
v -0.666360 0.750078 -0.676685
v -0.327984 0.750078 -0.676685
v 0.010325 0.750078 0.000000
v 0.010325 0.750078 0.676685
v 0.010325 0.750078 -0.676685
v -0.327984 1.006376 0.676685
v 0.010325 1.006376 0.676685
v 0.010325 1.006376 0.000000
v 0.010325 1.006376 -0.676685
v -0.327984 1.006376 -0.676685
v -0.666360 1.006376 -0.676685
v -0.666360 1.006376 0.000000
v -0.666360 1.006376 0.676685
v 0.348633 1.006169 0.676685
v 0.687010 1.006169 0.676685
v 0.687010 1.006169 0.000000
v 0.687010 1.006169 -0.676685
v 0.348633 1.006169 -0.676685
v 0.010325 1.006169 -0.676685
v 0.010325 1.006169 0.000000
v 0.010325 1.006169 0.676685
v -0.666360 2.606864 0.676685
v -0.666360 2.606864 0.000000
v -0.666360 2.606864 -0.676685
v 0.687010 2.606864 -0.676685
v 0.687010 2.606864 0.000000
v 0.687010 2.606864 0.676685
v 0.687010 5.033357 0.000000
v 0.010325 5.033357 0.000000
v 0.010325 5.033357 0.676685
v 0.687010 5.033357 0.676685
v 0.010325 5.033357 -0.676685
v 0.687010 5.033357 -0.676685
v -0.666360 5.033357 0.676685
v -0.666360 5.033357 0.000000
v -0.666360 5.033357 -0.676685
v 1.024706 3.606628 0.995137
v 0.010325 3.606628 0.995137
v 1.024706 5.033357 0.995137
v 0.010325 5.033357 0.995137
v 1.024706 3.606628 0.000000
v 1.024706 5.033357 0.000000
v 0.010325 3.606628 -0.995137
v 1.024706 3.606628 -0.995137
v 0.010325 5.033357 -0.995137
v 1.024706 5.033357 -0.995137
v -1.004057 3.606628 0.995137
v -1.004057 3.606628 0.000000
v -1.004057 5.033357 0.995137
v -1.004057 5.033357 0.000000
v -1.004057 3.606628 -0.995137
v -1.004057 5.033357 -0.995137
v 1.384481 3.606628 0.676685
v 1.384481 3.606628 -0.000000
v 1.384481 2.606864 0.676685
v 1.384481 2.606864 -0.000000
v 1.384481 2.606864 -0.676685
v 1.384481 3.606628 -0.676685
v -1.363832 3.606628 -0.676685
v -1.363832 3.606628 -0.000000
v -1.363832 2.606864 -0.676685
v -1.363832 2.606864 -0.000000
v -1.363832 3.606628 0.676685
v -1.363832 2.606864 0.676685
v 0.687010 1.966705 0.000000
v 0.687010 1.966705 0.676685
v 1.384481 1.966705 -0.000000
v 1.384481 1.966705 0.676685
v 0.687010 1.966705 -0.676685
v 1.384481 1.966705 -0.676685
v -0.666360 1.966705 0.000000
v -0.666360 1.966705 -0.676685
v -1.363832 1.966705 -0.000000
v -1.363832 1.966705 -0.676685
v -0.666360 1.966705 0.676685
v -1.363832 1.966705 0.676685
v -1.004057 4.583937 0.995137
v -1.004057 4.583937 0.000000
v -1.004057 4.583937 -0.995137
v 0.010325 4.583937 -0.995137
v 1.024706 4.583937 -0.995137
v 1.024706 4.583937 0.000000
v 1.024706 4.583937 0.995137
v 0.010325 4.583937 0.995137
vt 0.625000 0.000000
vt 0.375000 0.250000
vt 0.375000 0.500000
vt 0.875000 0.000000
vt 0.875000 0.250000
vt 0.125000 0.000000
vt 0.125000 0.250000
vt 0.500000 0.500000
vt 0.250000 0.250000
vt 0.375000 0.375000
vt 0.250000 0.000000
vt 0.750000 0.000000
vt 0.625000 0.375000
vt 0.750000 0.250000
vt 0.500000 0.375000
vt 0.375000 0.750000
vt 0.625000 0.500000
vt 0.625000 0.750000
vt 0.562494 0.750000
vt 0.500000 0.250000
vt 0.562494 0.000000
vt 0.625000 0.250000
vt 0.375000 0.000000
vt 0.375000 0.875000
vt 0.437506 1.000000
vt 0.375000 1.000000
vt 0.625000 0.875000
vt 0.562494 0.875000
vt 0.562494 1.000000
vt 0.625000 1.000000
vt 0.437506 0.750000
vt 0.500000 0.875000
vt 0.437506 0.875000
vt 0.500000 1.000000
vt 0.500000 0.687506
vt 0.500000 0.750000
vt 0.500000 0.000000
vt 0.500000 0.062494
vt 0.437506 0.000000
vt 0.468753 1.000000
vt 0.468753 0.000000
vt 0.468753 0.875000
vt 0.468753 0.750000
vt 0.625000 0.875000
vt 0.625000 1.000000
vt 0.562494 1.000000
vt 0.562494 0.750000
vt 0.625000 0.750000
vt 0.468753 0.750000
vt 0.500000 0.750000
vt 0.468753 0.875000
vt 0.500000 1.000000
vt 0.468753 1.000000
vt 0.437506 1.000000
vt 0.375000 1.000000
vt 0.375000 0.875000
vt 0.375000 0.750000
vt 0.437506 0.750000
vt 0.468753 0.875000
vt 0.468753 1.000000
vt 0.468753 0.750000
vt 0.437506 1.000000
vt 0.468753 1.000000
vt 0.468753 0.875000
vt 0.468753 0.750000
vt 0.437506 0.750000
vt 0.375000 0.750000
vt 0.375000 0.875000
vt 0.375000 1.000000
vt 0.562494 1.000000
vt 0.500000 1.000000
vt 0.625000 1.000000
vt 0.625000 0.875000
vt 0.625000 0.750000
vt 0.500000 0.750000
vt 0.562494 0.750000
vt 0.468753 0.750000
vt 0.468753 0.875000
vt 0.468753 1.000000
vt 0.375000 0.125000
vt 0.250000 0.125000
vt 0.125000 0.125000
vt 0.375000 0.625000
vt 0.625000 0.625000
vt 0.875000 0.125000
vt 0.750000 0.125000
vt 0.625000 0.125000
vt 0.500000 0.250000
vt 0.625000 0.250000
vt 0.625000 0.375000
vt 0.625000 0.500000
vt 0.500000 0.500000
vt 0.375000 0.375000
vt 0.375000 0.250000
vt 0.375000 0.500000
vt 0.500000 0.250000
vt 0.625000 0.250000
vt 0.625000 0.250000
vt 0.500000 0.250000
vt 0.625000 0.375000
vt 0.625000 0.375000
vt 0.625000 0.500000
vt 0.500000 0.500000
vt 0.500000 0.500000
vt 0.625000 0.500000
vt 0.375000 0.375000
vt 0.375000 0.250000
vt 0.375000 0.250000
vt 0.375000 0.375000
vt 0.375000 0.500000
vt 0.375000 0.500000
vt 0.750000 0.250000
vt 0.625000 0.250000
vt 0.625000 0.125000
vt 0.750000 0.125000
vt 0.250000 0.250000
vt 0.125000 0.250000
vt 0.125000 0.125000
vt 0.250000 0.125000
vt 0.375000 0.125000
vt 0.375000 0.250000
vt 0.875000 0.125000
vt 0.875000 0.250000
vt 0.625000 0.125000
vt 0.750000 0.125000
vt 0.750000 0.125000
vt 0.625000 0.125000
vt 0.250000 0.250000
vt 0.125000 0.250000
vt 0.125000 0.250000
vt 0.250000 0.250000
vt 0.250000 0.125000
vt 0.375000 0.125000
vt 0.375000 0.125000
vt 0.250000 0.125000
vt 0.875000 0.250000
vt 0.750000 0.250000
vt 0.750000 0.250000
vt 0.875000 0.250000
vt 0.375000 0.250000
vt 0.375000 0.375000
vt 0.375000 0.500000
vt 0.500000 0.500000
vt 0.625000 0.500000
vt 0.625000 0.375000
vt 0.625000 0.250000
vt 0.500000 0.250000
vn 0.000000 -1.000000 0.000000
vn 0.000000 -1.000000 0.000000
vn 0.000000 -1.000000 0.000000
vn 0.000000 -1.000000 0.000000
vn 0.000000 -1.000000 0.000000
vn 0.000000 -1.000000 0.000000
vn 0.000000 -1.000000 0.000000
vn 0.000000 -1.000000 0.000000
vn 0.000000 -1.000000 0.000000
vn 0.000000 -1.000000 0.000000
vn 0.000000 -1.000000 0.000000
vn 0.000000 -1.000000 0.000000
vn 0.000000 -1.000000 0.000000
vn 0.000000 -1.000000 0.000000
vn 0.000000 -1.000000 0.000000
vn 0.000000 -1.000000 0.000000
vn 0.000000 -1.000000 0.000000
vn 0.000000 -1.000000 0.000000
vn 0.000000 0.000000 1.000000
vn 0.000000 0.000000 1.000000
vn 0.000000 0.000000 1.000000
vn 0.000000 0.000000 1.000000
vn 1.000000 0.000000 0.000000
vn 1.000000 0.000000 0.000000
vn 1.000000 0.000000 0.000000
vn 1.000000 0.000000 0.000000
vn 1.000000 0.000000 0.000000
vn 1.000000 0.000000 0.000000
vn 1.000000 0.000000 0.000000
vn 1.000000 0.000000 0.000000
vn 0.000000 0.000000 -1.000000
vn 0.000000 0.000000 -1.000000
vn 0.000000 0.000000 -1.000000
vn 0.000000 0.000000 -1.000000
vn 0.000000 0.000000 -1.000000
vn 0.000000 0.000000 -1.000000
vn 0.000000 0.000000 -1.000000
vn 0.000000 0.000000 -1.000000
vn -1.000000 0.000000 0.000000
vn -1.000000 0.000000 0.000000
vn -1.000000 0.000000 0.000000
vn -1.000000 0.000000 0.000000
vn -1.000000 0.000000 0.000000
vn -1.000000 0.000000 0.000000
vn -1.000000 0.000000 0.000000
vn -1.000000 0.000000 0.000000
vn 0.000000 0.000000 1.000000
vn 0.000000 0.000000 1.000000
vn 0.000000 0.000000 1.000000
vn 0.000000 0.000000 1.000000
vn 0.000000 0.000000 1.000000
vn 0.000000 0.000000 1.000000
vn 0.000000 0.000000 1.000000
vn 0.000000 0.000000 1.000000
vn 1.000000 0.000000 0.000000
vn 1.000000 0.000000 0.000000
vn 1.000000 0.000000 0.000000
vn 1.000000 0.000000 0.000000
vn 1.000000 0.000000 0.000000
vn 1.000000 0.000000 0.000000
vn 1.000000 0.000000 0.000000
vn 1.000000 0.000000 0.000000
vn 0.000000 0.000000 -1.000000
vn 0.000000 0.000000 -1.000000
vn 0.000000 0.000000 -1.000000
vn 0.000000 0.000000 -1.000000
vn 0.000000 0.000000 -1.000000
vn 0.000000 0.000000 -1.000000
vn 0.000000 0.000000 -1.000000
vn 0.000000 0.000000 -1.000000
vn -1.000000 0.000000 0.000000
vn -1.000000 0.000000 0.000000
vn -1.000000 0.000000 0.000000
vn -1.000000 0.000000 0.000000
vn -1.000000 0.000000 0.000000
vn -1.000000 0.000000 0.000000
vn -1.000000 0.000000 0.000000
vn -1.000000 0.000000 0.000000
vn 0.000000 0.000000 1.000000
vn 0.000000 0.000000 1.000000
vn 0.000000 0.000000 1.000000
vn 0.000000 0.000000 1.000000
vn 0.000000 0.000000 1.000000
vn 0.000000 0.000000 1.000000
vn 0.000000 0.000000 1.000000
vn 0.000000 0.000000 1.000000
vn -1.000000 0.000000 0.000000
vn -1.000000 0.000000 0.000000
vn -1.000000 0.000000 0.000000
vn -1.000000 0.000000 0.000000
vn 1.000000 0.000000 0.000000
vn 1.000000 0.000000 0.000000
vn 0.000000 1.000000 0.000000
vn 0.000000 1.000000 0.000000
vn 0.000000 1.000000 0.000000
vn 0.000000 1.000000 0.000000
vn 0.000000 1.000000 0.000000
vn 0.000000 1.000000 0.000000
vn 0.000000 0.000000 1.000000
vn 0.000000 0.000000 1.000000
vn 0.000000 0.000000 1.000000
vn 0.000000 0.000000 1.000000
vn -0.000000 0.000000 1.000000
vn -0.000000 0.000000 1.000000
vn -0.000000 0.000000 1.000000
vn -0.000000 0.000000 1.000000
vn 0.000000 0.000000 1.000000
vn 0.000000 0.000000 1.000000
vn 0.000000 0.000000 1.000000
vn 0.000000 0.000000 1.000000
vn -1.000000 0.000000 0.000000
vn -1.000000 0.000000 0.000000
vn 0.000000 0.000000 1.000000
vn 0.000000 0.000000 1.000000
vn 0.000000 0.000000 1.000000
vn 0.000000 0.000000 1.000000
vn 0.000000 0.000000 1.000000
vn 0.000000 0.000000 1.000000
vn 1.000000 0.000000 0.000000
vn 1.000000 0.000000 0.000000
vn -1.000000 0.000000 0.000000
vn -1.000000 0.000000 0.000000
vn 0.000000 0.000000 -1.000000
vn 0.000000 0.000000 -1.000000
vn 0.000000 0.000000 -1.000000
vn 0.000000 0.000000 -1.000000
vn 1.000000 0.000000 0.000000
vn 1.000000 0.000000 0.000000
vn 1.000000 0.000000 0.000000
vn 1.000000 0.000000 0.000000
vn 1.000000 0.000000 0.000000
vn 1.000000 0.000000 0.000000
vn 1.000000 0.000000 0.000000
vn 1.000000 0.000000 0.000000
vn 1.000000 0.000000 0.000000
vn 1.000000 0.000000 0.000000
vn 0.000000 1.000000 0.000000
vn 0.000000 1.000000 0.000000
vn 0.000000 1.000000 0.000000
vn -1.000000 0.000000 0.000000
vn -1.000000 0.000000 0.000000
vn -1.000000 0.000000 0.000000
vn -1.000000 0.000000 0.000000
vn -1.000000 0.000000 0.000000
vn -1.000000 0.000000 0.000000
vn -1.000000 0.000000 0.000000
vn -1.000000 0.000000 0.000000
vn -1.000000 0.000000 0.000000
vn -1.000000 0.000000 0.000000
vn -1.000000 0.000000 0.000000
vn -1.000000 0.000000 0.000000
vn 0.000000 0.000000 -1.000000
vn 0.000000 0.000000 -1.000000
vn 0.000000 0.000000 -1.000000
vn 0.000000 0.000000 -1.000000
vn 0.000000 0.000000 -1.000000
vn 0.000000 0.000000 -1.000000
vn 0.000000 0.000000 -1.000000
vn 0.000000 0.000000 -1.000000
vn 0.000000 0.000000 -1.000000
vn 0.000000 0.000000 -1.000000
vn 0.000000 0.000000 -1.000000
vn 0.000000 0.000000 -1.000000
vn 1.000000 0.000000 0.000000
vn 1.000000 0.000000 0.000000
vn 0.000000 0.000000 -1.000000
vn 0.000000 0.000000 -1.000000
vn 1.000000 0.000000 0.000000
vn 1.000000 0.000000 0.000000
vn 1.000000 0.000000 0.000000
vn 1.000000 0.000000 0.000000
vn 0.000000 0.000000 -1.000000
vn 0.000000 0.000000 -1.000000
vn 0.000000 0.000000 -1.000000
vn 0.000000 0.000000 -1.000000
vn 0.000000 0.000000 1.000000
vn 0.000000 0.000000 1.000000
vn 0.000000 0.000000 1.000000
vn 0.000000 0.000000 1.000000
vn 1.000000 0.000000 0.000000
vn 1.000000 0.000000 0.000000
vn 1.000000 0.000000 0.000000
vn 1.000000 0.000000 0.000000
vn 0.000000 0.000000 -1.000000
vn 0.000000 0.000000 -1.000000
vn 0.000000 0.000000 -1.000000
vn 0.000000 0.000000 -1.000000
vn 1.000000 0.000000 0.000000
vn 1.000000 0.000000 0.000000
vn -1.000000 -0.000000 0.000000
vn -1.000000 -0.000000 0.000000
vn -1.000000 -0.000000 0.000000
vn -1.000000 -0.000000 0.000000
vn 0.000000 0.000000 1.000000
vn 0.000000 0.000000 1.000000
vn -1.000000 0.000000 0.000000
vn -1.000000 0.000000 0.000000
vn 0.000000 0.000000 -1.000000
vn 0.000000 0.000000 -1.000000
vn 0.000000 -1.000000 0.000000
vn 0.000000 -1.000000 0.000000
vn 0.000000 -1.000000 0.000000
vn 0.000000 -1.000000 0.000000
vn 0.000000 1.000000 0.000000
vn 0.000000 1.000000 0.000000
vn 0.000000 1.000000 0.000000
vn 0.000000 1.000000 0.000000
vn -0.000000 -1.000000 0.000000
vn -0.000000 -1.000000 0.000000
vn -0.000000 -1.000000 0.000000
vn -0.000000 -1.000000 0.000000
vn 0.000000 1.000000 0.000000
vn 0.000000 1.000000 0.000000
vn 0.000000 1.000000 0.000000
vn 0.000000 1.000000 0.000000
vn 0.000000 -1.000000 0.000000
vn 0.000000 -1.000000 0.000000
vn 0.000000 -1.000000 0.000000
vn 0.000000 -1.000000 0.000000
vn 0.000000 1.000000 0.000000
vn 0.000000 1.000000 0.000000
vn 0.000000 1.000000 0.000000
vn 0.000000 1.000000 0.000000
vn -0.000000 -1.000000 0.000000
vn -0.000000 -1.000000 0.000000
vn -0.000000 -1.000000 0.000000
vn -0.000000 -1.000000 0.000000
vn 0.000000 1.000000 0.000000
vn 0.000000 1.000000 0.000000
vn 0.000000 1.000000 0.000000
vn 0.000000 1.000000 0.000000
vn 0.000000 -1.000000 0.000000
vn 0.000000 -1.000000 0.000000
vn 0.000000 -1.000000 0.000000
vn 0.000000 -1.000000 0.000000
vn 0.000000 1.000000 0.000000
vn 0.000000 1.000000 0.000000
vn 0.000000 1.000000 0.000000
vn 0.000000 1.000000 0.000000
vn 0.000000 -1.000000 -0.000000
vn 0.000000 -1.000000 -0.000000
vn 0.000000 -1.000000 -0.000000
vn 0.000000 -1.000000 -0.000000
vn 0.000000 1.000000 -0.000001
vn 0.000000 1.000000 -0.000001
vn 0.000000 1.000000 -0.000001
vn 0.000000 1.000000 -0.000001
vn 0.000000 -1.000000 0.000000
vn 0.000000 -1.000000 0.000000
vn 0.000000 -1.000000 0.000000
vn 0.000000 -1.000000 0.000000
vn 0.000000 1.000000 0.000000
vn 0.000000 1.000000 0.000000
vn 0.000000 1.000000 0.000000
vn 0.000000 1.000000 0.000000
vn 0.000000 -1.000000 0.000000
vn 0.000000 -1.000000 0.000000
vn 0.000000 -1.000000 0.000000
vn 0.000000 -1.000000 0.000000
vn 0.000000 1.000000 0.000000
vn 0.000000 1.000000 0.000000
vn 0.000000 1.000000 0.000000
vn 0.000000 1.000000 0.000000
vn 0.000000 1.000000 0.000000
vn 0.000000 1.000000 0.000000
vn 0.000000 1.000000 0.000000
vn 0.000000 1.000000 0.000000
vn 0.000000 0.000000 1.000000
vn 0.000000 0.000000 1.000000
vn 0.000000 -1.000000 0.000000
vn 0.000000 -1.000000 0.000000
vn 0.000000 -1.000000 0.000000
vn 0.000000 -1.000000 0.000000
vn 0.000000 -1.000000 0.000000
vn 0.000000 -1.000000 0.000000
vn 0.000000 0.000000 -1.000000
vn 0.000000 0.000000 -1.000000
vn 0.000000 1.000000 0.000000
vn 0.000000 1.000000 0.000000
vn 0.000000 1.000000 0.000000
vn 0.000000 1.000000 0.000000
vn 0.000000 1.000000 0.000000
vn 0.000000 1.000000 0.000000
vn 0.000000 0.000000 -1.000000
vn 0.000000 0.000000 -1.000000
vn 0.000000 -1.000000 0.000000
vn 0.000000 -1.000000 0.000000
vn 0.000000 -1.000000 0.000000
vn 0.000000 -1.000000 0.000000
vn 0.000000 0.000000 1.000000
vn 0.000000 0.000000 1.000000
vn 0.000000 1.000000 0.000000
vn 0.000000 1.000000 0.000000
vn 0.000000 -1.000000 0.000000
vn 0.000000 -1.000000 0.000000
vn -1.000000 0.000000 0.000000
vn -1.000000 0.000000 0.000000
vn -1.000000 0.000000 0.000000
vn -1.000000 0.000000 0.000000
vn 1.000000 0.000000 0.000000
vn 1.000000 0.000000 0.000000
vn 0.000000 0.000000 1.000000
vn 0.000000 0.000000 1.000000
vn -1.000000 0.000000 0.000000
vn -1.000000 0.000000 0.000000
vn 0.000000 0.000000 -1.000000
vn 0.000000 0.000000 -1.000000
vn 1.000000 0.000000 0.000000
vn 1.000000 0.000000 0.000000
vn 1.000000 0.000000 0.000000
vn 1.000000 0.000000 0.000000
vn 1.000000 0.000000 0.000000
vn -1.000000 0.000000 0.000000
vn -1.000000 0.000000 0.000000
vn 0.000000 0.000000 -1.000000
vn 0.000000 0.000000 -1.000000
vn 1.000000 0.000000 0.000000
vn 1.000000 0.000000 0.000000
vn 0.000000 0.000000 1.000000
vn 0.000000 0.000000 1.000000
vn -1.000000 0.000000 0.000000
vn -1.000000 -0.000000 0.000000
vn -1.000000 -0.000000 0.000000
vn -1.000000 0.000000 0.000000
vn 0.000000 0.000000 -1.000000
vn 0.000000 0.000000 -1.000000
vn 0.000000 0.000000 -1.000000
vn 1.000000 0.000000 0.000000
vn 1.000000 0.000000 0.000000
vn 1.000000 0.000000 0.000000
vn 0.000000 0.000000 1.000000
vn 0.000000 0.000000 1.000000
vn 0.000000 0.000000 1.000000
s 1
g pCube2
usemtl lambert7SG
f 33/56/1 34/33/2 35/54/3 36/55/4
s 2
f 24/46/5 25/28/6 26/44/7 27/45/8
s 1
f 37/57/9 38/58/10 34/33/2 33/56/1
s 2
f 26/44/7 25/28/6 28/47/11 29/48/12
f 30/49/13 28/50/11 25/32/6 31/51/14
f 31/51/14 25/32/6 24/52/5 32/53/15
s 1
f 34/33/2 39/59/16 40/60/17 35/54/3
f 38/58/10 41/61/18 39/59/16 34/33/2
s 3
f 43/63/19 42/62/20 35/54/21 40/60/22
s 4
f 44/64/23 43/63/24 40/60/25 39/59/26
s 5
f 45/65/27 44/64/28 39/59/29 41/61/30
s 6
f 46/66/31 45/65/32 41/61/33 38/58/34
s 7
f 47/67/35 46/66/36 38/58/37 37/57/38
s 8
f 48/68/39 47/67/40 37/57/41 33/56/42
s 9
f 49/69/43 48/68/44 33/56/45 36/55/46
s 10
f 42/62/47 49/69/48 36/55/49 35/54/50
s 11
f 51/72/51 50/70/52 24/46/53 27/45/54
s 12
f 52/73/55 51/72/56 27/45/57 26/44/58
s 13
f 53/74/59 52/73/60 26/44/61 29/48/62
s 14
f 54/76/63 53/74/64 29/48/65 28/47/66
s 15
f 55/77/67 54/75/68 28/50/69 30/49/70
s 16
f 56/78/71 55/77/72 30/49/73 31/51/74
s 17
f 57/79/75 56/78/76 31/51/77 32/53/78
s 18
f 50/71/79 57/79/80 32/53/81 24/52/82
s 11
usemtl lambert6SG
f 51/72/51 2/30/83 18/29/84 50/70/52
s 18
f 50/71/79 18/34/85 21/40/86 57/79/80
s 17
f 57/79/75 21/40/87 22/42/88 56/78/76
s 8
f 48/68/39 12/24/89 7/16/90 47/67/40
s 4
f 44/64/23 22/42/91 21/40/92 43/63/24
s 19
usemtl lambert7SG
f 64/90/93 65/15/94 66/88/95 67/89/96
f 69/91/97 68/92/98 65/15/94 64/90/93
s 20
usemtl lambert6SG
f 19/38/99 58/80/100 1/23/101 20/39/102
s 21
usemtl lambert5SG
f 63/87/103 4/22/104 10/20/105 19/38/106
s 20
usemtl lambert6SG
f 21/41/107 18/37/108 19/38/99 20/39/102
s 10
f 49/69/48 42/62/47 20/25/109 1/26/110
s 9
f 48/68/44 49/69/43 1/26/111 12/24/112
s 3
f 42/62/20 43/63/19 21/40/113 20/25/114
s 21
usemtl lambert5SG
f 58/80/115 19/38/106 10/20/105 3/2/116
s 20
usemtl lambert6SG
f 63/87/117 19/38/99 18/21/108 2/1/118
s 12
f 52/73/55 13/27/119 2/30/120 51/72/56
s 16
f 56/78/71 22/42/121 23/43/122 55/77/72
s 7
f 47/67/35 7/16/123 15/31/124 46/66/36
s 6
f 46/66/31 15/31/125 23/43/126 45/65/32
s 5
f 45/65/27 23/43/127 22/42/128 44/64/28
s 22
f 62/86/129 63/87/130 2/1/131 13/12/132
s 23
usemtl lambert5SG
f 90/112/133 89/113/134 91/114/135 92/115/136
s 19
usemtl lambert7SG
f 71/93/137 70/94/138 66/88/95 65/15/94
f 72/95/139 71/93/137 65/15/94 68/92/98
s 24
usemtl lambert6SG
f 59/81/140 60/82/141 7/6/142 12/11/143
s 25
usemtl lambert5SG
f 96/116/144 95/117/145 97/118/146 98/119/147
s 24
usemtl lambert6SG
f 1/23/148 58/80/149 59/81/140 12/11/143
s 25
usemtl lambert5SG
f 100/120/150 99/121/151 96/116/144 98/119/147
s 26
f 60/83/152 5/3/153 9/8/154 16/35/155
f 61/84/156 16/35/155 9/8/154 6/17/157
s 27
usemtl lambert6SG
f 23/43/158 15/31/159 16/35/160 17/36/161
s 14
f 53/74/64 54/76/63 17/19/162 8/18/163
s 13
f 52/73/60 53/74/59 8/18/164 13/27/165
s 15
f 54/75/68 55/77/67 23/43/166 17/36/167
s 22
f 13/12/132 8/4/168 61/85/169 62/86/129
s 23
usemtl lambert5SG
f 92/115/136 93/122/170 94/123/171 90/112/133
s 27
usemtl lambert6SG
f 8/18/172 17/19/161 16/35/160 61/84/173
f 60/83/174 16/35/160 15/31/159 7/16/175
s 28
usemtl lambert2SG
f 74/96/176 73/97/177 119/146/178 120/147/179
s 29
f 73/97/180 77/100/181 118/145/182 119/146/183
s 30
usemtl lambert7SG
f 80/102/184 79/103/185 116/143/186 117/144/187
s 29
f 77/100/181 80/102/188 117/144/189 118/145/182
s 31
usemtl lambert2SG
f 84/106/190 83/107/191 113/140/192 114/141/193
s 28
f 83/107/194 74/96/176 120/147/179 113/140/195
s 31
usemtl lambert7SG
f 87/110/196 84/106/190 114/141/193 115/142/197
s 30
f 79/103/185 87/110/198 115/142/199 116/143/186
s off
usemtl lambert2SG
f 10/20/200 4/22/201 73/97/202 74/96/203
usemtl lambert7SG
f 67/89/204 66/88/205 76/99/206 75/98/207
usemtl lambert2SG
f 4/22/208 14/13/209 77/100/210 73/97/211
usemtl lambert7SG
f 64/90/212 67/89/213 75/98/214 78/101/215
usemtl lambert2SG
f 6/17/216 9/8/217 79/103/218 80/102/219
usemtl lambert7SG
f 68/92/220 69/91/221 82/105/222 81/104/223
usemtl lambert2SG
f 14/13/224 6/17/225 80/102/226 77/100/227
usemtl lambert7SG
f 69/91/228 64/90/229 78/101/230 82/105/231
usemtl lambert2SG
f 11/10/232 3/2/233 83/107/234 84/106/235
usemtl lambert7SG
f 70/94/236 71/93/237 86/109/238 85/108/239
usemtl lambert2SG
f 3/2/240 10/20/241 74/96/242 83/107/243
usemtl lambert7SG
f 66/88/244 70/94/245 85/108/246 76/99/247
usemtl lambert2SG
f 5/3/248 11/10/249 84/106/250 87/110/251
usemtl lambert7SG
f 71/93/252 72/95/253 88/111/254 86/109/255
usemtl lambert2SG
f 9/8/256 5/3/257 87/110/258 79/103/259
usemtl lambert7SG
f 72/95/260 68/92/261 81/104/262 88/111/263
s 32
usemtl lambert5SG
f 14/14/264 4/22/265 89/113/266 90/112/267
s 21
f 4/22/104 63/87/103 91/114/268 89/113/269
s 33
usemtl lambert2SG
f 102/124/270 101/125/271 103/126/272 104/127/273
f 101/128/271 105/129/274 106/130/275 103/131/272
s 26
usemtl lambert5SG
f 61/7/156 6/82/157 94/118/276 93/117/277
s 32
f 6/82/278 14/81/264 90/119/267 94/118/279
s 34
f 11/80/280 5/2/281 95/121/282 96/120/283
s 26
f 5/2/153 60/9/152 97/116/284 95/121/285
s 35
usemtl lambert2SG
f 108/132/286 107/133/287 109/134/288 110/135/289
s 21
usemtl lambert5SG
f 58/86/115 3/85/116 99/122/290 100/115/291
s 34
f 3/85/292 11/5/280 96/123/283 99/122/293
s 35
usemtl lambert2SG
f 107/136/287 111/137/294 112/138/295 109/139/288
s 36
usemtl initialShadingGroup
f 63/87/296 62/86/297 101/125/298 102/124/299
s 23
usemtl lambert2SG
f 92/115/136 91/114/135 104/127/300 103/126/301
s 21
f 91/114/268 63/87/103 102/124/302 104/127/303
s 36
usemtl initialShadingGroup
f 62/9/297 61/7/304 105/129/305 101/128/298
s 26
usemtl lambert2SG
f 61/7/156 93/117/277 106/130/306 105/129/307
s 23
f 93/117/170 92/116/136 103/131/301 106/130/308
s 37
usemtl initialShadingGroup
f 60/81/309 59/80/310 107/133/311 108/132/312
s 25
usemtl lambert2SG
f 98/120/147 97/119/146 110/135/313 109/134/314
s 26
f 97/119/284 60/81/152 108/132/315 110/135/316
s 37
usemtl initialShadingGroup
f 59/5/310 58/14/317 111/137/318 107/136/311
s 21
usemtl lambert2SG
f 58/14/115 100/112/291 112/138/319 111/137/320
s 25
f 100/112/150 98/123/147 109/139/314 112/138/321
s 31
usemtl lambert7SG
f 114/141/193 113/140/192 85/108/322 86/109/323
f 115/142/197 114/141/193 86/109/323 88/111/324
s 30
f 116/143/186 115/142/199 88/111/325 81/104/326
f 117/144/187 116/143/186 81/104/326 82/105/327
s 29
f 118/145/182 117/144/189 82/105/328 78/101/329
f 119/146/183 118/145/182 78/101/329 75/98/330
s 28
f 120/147/179 119/146/178 75/98/331 76/99/332
f 113/140/195 120/147/179 76/99/332 85/108/333
